<svg width="25" height="25" viewBox="0 0 25 25" fill="none" xmlns="http://www.w3.org/2000/svg">
<path d="M20.5306 10.0306L13.0306 17.5306C12.961 17.6003 12.8782 17.6557 12.7872 17.6934C12.6961 17.7312 12.5986 17.7506 12.5 17.7506C12.4014 17.7506 12.3038 17.7312 12.2128 17.6934C12.1217 17.6557 12.039 17.6003 11.9694 17.5306L4.46936 10.0306C4.32863 9.88988 4.24957 9.69901 4.24957 9.49999C4.24957 9.30097 4.32863 9.11009 4.46936 8.96936C4.6101 8.82863 4.80097 8.74957 4.99999 8.74957C5.19901 8.74957 5.38988 8.82863 5.53061 8.96936L12.5 15.9397L19.4694 8.96936C19.539 8.89968 19.6218 8.84441 19.7128 8.80669C19.8039 8.76898 19.9014 8.74957 20 8.74957C20.0985 8.74957 20.1961 8.76898 20.2872 8.80669C20.3782 8.84441 20.4609 8.89968 20.5306 8.96936C20.6003 9.03905 20.6556 9.12177 20.6933 9.21282C20.731 9.30386 20.7504 9.40144 20.7504 9.49999C20.7504 9.59854 20.731 9.69612 20.6933 9.78716C20.6556 9.87821 20.6003 9.96093 20.5306 10.0306Z" fill="#0F0F0F"/>
</svg>
