<svg width="25" height="24" viewBox="0 0 25 24" fill="none" xmlns="http://www.w3.org/2000/svg">
<path d="M12.5 23.25C18.7132 23.25 23.75 18.2132 23.75 12C23.75 5.7868 18.7132 0.75 12.5 0.75C6.2868 0.75 1.25 5.7868 1.25 12C1.25 18.2132 6.2868 23.25 12.5 23.25Z" fill="#F42F4C"/>
<path d="M6.5 9.83333L8.35625 11L7.6625 9.1L9.5 7.86667H7.2125L6.5 6L5.80625 7.86667H3.5L5.3375 9.1L4.64375 11L6.5 9.83333Z" fill="#FFE62E"/>
<path d="M10 5.3L10.9281 6L10.5813 4.86L11.5 4.12H10.3562L10 3L9.65312 4.12H8.5L9.41875 4.86L9.07188 6L10 5.3Z" fill="#FFE62E"/>
<path d="M13 7.3L13.9281 8L13.5813 6.86L14.5 6.12H13.3562L13 5L12.6531 6.12H11.5L12.4187 6.86L12.0719 8L13 7.3Z" fill="#FFE62E"/>
<path d="M13 11.3L13.9281 12L13.5813 10.86L14.5 10.12H13.3562L13 9L12.6531 10.12H11.5L12.4187 10.86L12.0719 12L13 11.3Z" fill="#FFE62E"/>
<path d="M10 13.3L10.9281 14L10.5813 12.86L11.5 12.12H10.3562L10 11L9.65312 12.12H8.5L9.41875 12.86L9.07188 14L10 13.3Z" fill="#FFE62E"/>
</svg>
