<svg width="252" height="144" viewBox="0 0 252 144" fill="none" xmlns="http://www.w3.org/2000/svg">
<path fill-rule="evenodd" clip-rule="evenodd" d="M92.3186 48.1829L75.6135 0L60.536 48.6944L92.3186 48.1829Z" fill="#684287"/>
<path fill-rule="evenodd" clip-rule="evenodd" d="M83.0204 113.143L125.314 142.465L108.428 94.3491L83.0204 113.143Z" fill="#684287"/>
<path fill-rule="evenodd" clip-rule="evenodd" d="M30.7126 144L77.4446 109.281L106.198 88.0029L153.066 53.4615L94.5188 54.5217L58.5468 55.1074L0 55.9452L47.9979 88.9444L30.7126 144ZM54.9752 109.985L69.6534 99.0792L98.4295 77.7865L113.13 66.9548L94.7449 67.2885L58.7503 67.8742L40.3875 68.141L63.1959 83.8288L54.9752 109.985Z" fill="#ED1C24"/>
<path fill-rule="evenodd" clip-rule="evenodd" d="M168.769 142.465H183.228V128.238C180.546 134.666 175.309 139.826 168.769 142.465Z" fill="#7C51A1"/>
<path fill-rule="evenodd" clip-rule="evenodd" d="M130.634 88.2623H134.989H147.452H158.822C160.759 88.2623 162.635 88.4847 164.443 88.9148V107.316C162.304 104.113 158.619 101.993 154.46 101.993H147.452V128.742H154.46C161.03 128.742 166.403 123.456 166.403 116.991V116.702V113.803V113.751V89.4634V88.2698H169.168H183.221H184.916L201.523 116.873V88.2698H218.349V108.347H235.174V88.2698H252V142.473H235.174V122.396H218.349V142.473H216.39H201.531H200.642L183.228 112.476V118.459C183.228 131.663 172.25 142.473 158.822 142.473H147.452H134.989H130.634V88.2623Z" fill="#7C51A1"/>
</svg>
