<svg width="25" height="24" viewBox="0 0 25 24" fill="none" xmlns="http://www.w3.org/2000/svg">
<path d="M18.5 2.475C16.7375 1.3875 14.7125 0.75 12.5 0.75V2.475H18.5Z" fill="#8D8E8F"/>
<path d="M12.5 4.19998H20.6C19.9625 3.56248 19.25 2.96248 18.5 2.47498H12.5V4.19998Z" fill="white"/>
<path d="M12.5 5.92495H21.9875C21.575 5.28745 21.125 4.72495 20.6375 4.19995H12.5V5.92495Z" fill="#ED4C5C"/>
<path d="M12.5 7.65005H22.8875C22.625 7.05005 22.325 6.45005 21.9875 5.92505H12.5V7.65005Z" fill="white"/>
<path d="M12.5 9.37502H23.45C23.3 8.77502 23.1125 8.21252 22.8875 7.65002H12.5V9.37502Z" fill="#ED4C5C"/>
<path d="M12.5 11.1375H23.7125C23.675 10.5375 23.5625 9.97498 23.45 9.41248H12.5V11.1375Z" fill="white"/>
<path d="M23.7125 11.1375H12.5V12H1.25C1.25 12.3 1.25 12.5625 1.2875 12.8625H23.7125C23.75 12.5625 23.75 12.3 23.75 12C23.75 11.7 23.75 11.4 23.7125 11.1375Z" fill="#ED4C5C"/>
<path d="M1.55 14.5875H23.45C23.6 14.025 23.675 13.4625 23.7125 12.8625H1.2875C1.325 13.425 1.4 14.025 1.55 14.5875Z" fill="white"/>
<path d="M2.1125 16.3125H22.8875C23.1125 15.75 23.3 15.1875 23.45 14.5875H1.55C1.7 15.1875 1.8875 15.75 2.1125 16.3125Z" fill="#ED4C5C"/>
<path d="M3.0125 18.0375H21.9875C22.325 17.475 22.625 16.9125 22.8875 16.3125H2.1125C2.375 16.9125 2.675 17.475 3.0125 18.0375Z" fill="white"/>
<path d="M4.3625 19.7625H20.6375C21.125 19.2375 21.6125 18.6375 21.9875 18.0375H3.0125C3.3875 18.675 3.875 19.2375 4.3625 19.7625Z" fill="#ED4C5C"/>
<path d="M6.4625 21.4875H18.5375C19.325 21 20 20.4 20.6375 19.7625H4.3625C5 20.4375 5.7125 21 6.4625 21.4875Z" fill="white"/>
<path d="M12.5 23.25C14.7125 23.25 16.775 22.6125 18.5375 21.4875H6.4625C8.225 22.6125 10.2875 23.25 12.5 23.25Z" fill="#ED4C5C"/>
<path d="M6.5 2.475C5.7125 2.9625 5 3.5625 4.3625 4.2C3.8375 4.725 3.3875 5.325 3.0125 5.925C2.675 6.4875 2.3375 7.05 2.1125 7.65C1.8875 8.2125 1.7 8.775 1.55 9.375C1.4 9.9375 1.325 10.5 1.2875 11.1C1.25 11.4 1.25 11.7 1.25 12H12.5V0.75C10.2875 0.75 8.2625 1.3875 6.5 2.475Z" fill="#428BC1"/>
<path d="M9.875 1.125L10.0625 1.6875H10.625L10.175 2.0625L10.325 2.625L9.875 2.2875L9.425 2.625L9.575 2.0625L9.125 1.6875H9.6875L9.875 1.125ZM11.375 3.375L11.5625 3.9375H12.125L11.675 4.3125L11.825 4.875L11.375 4.5375L10.925 4.875L11.075 4.3125L10.625 3.9375H11.1875L11.375 3.375ZM8.375 3.375L8.5625 3.9375H9.125L8.675 4.3125L8.825 4.875L8.375 4.5375L7.925 4.875L8.075 4.3125L7.625 3.9375H8.1875L8.375 3.375ZM9.875 5.625L10.0625 6.1875H10.625L10.175 6.5625L10.325 7.125L9.875 6.7875L9.425 7.125L9.575 6.5625L9.125 6.1875H9.6875L9.875 5.625ZM6.875 5.625L7.0625 6.1875H7.625L7.175 6.5625L7.325 7.125L6.875 6.7875L6.425 7.125L6.575 6.5625L6.125 6.1875H6.6875L6.875 5.625ZM3.875 5.625L4.0625 6.1875H4.625L4.175 6.5625L4.325 7.125L3.875 6.7875L3.425 7.125L3.575 6.5625L3.125 6.1875H3.6875L3.875 5.625ZM11.375 7.875L11.5625 8.4375H12.125L11.675 8.8125L11.825 9.375L11.375 9.0375L10.925 9.375L11.075 8.8125L10.625 8.4375H11.1875L11.375 7.875ZM8.375 7.875L8.5625 8.4375H9.125L8.675 8.8125L8.825 9.375L8.375 9.0375L7.925 9.375L8.075 8.8125L7.625 8.4375H8.1875L8.375 7.875ZM5.375 7.875L5.5625 8.4375H6.125L5.675 8.8125L5.825 9.375L5.375 9.0375L4.925 9.375L5.075 8.8125L4.625 8.4375H5.1875L5.375 7.875ZM9.875 10.125L10.0625 10.6875H10.625L10.175 11.0625L10.325 11.625L9.875 11.2875L9.425 11.625L9.575 11.0625L9.125 10.6875H9.6875L9.875 10.125ZM6.875 10.125L7.0625 10.6875H7.625L7.175 11.0625L7.325 11.625L6.875 11.2875L6.425 11.625L6.575 11.0625L6.125 10.6875H6.6875L6.875 10.125ZM3.875 10.125L4.0625 10.6875H4.625L4.175 11.0625L4.325 11.625L3.875 11.2875L3.425 11.625L3.575 11.0625L3.125 10.6875H3.6875L3.875 10.125ZM4.925 4.875L5.375 4.5375L5.825 4.875L5.6375 4.3125L6.0875 3.9375H5.525L5.375 3.375L5.1875 3.9375H4.6625L5.1125 4.275L4.925 4.875ZM1.925 9.375L2.375 9.0375L2.825 9.375L2.6375 8.8125L3.0875 8.4375H2.5625L2.375 7.875L2.1875 8.4375H1.8125C1.8125 8.475 1.775 8.5125 1.775 8.55L2.075 8.775L1.925 9.375Z" fill="white"/>
</svg>
